<svg width="232" height="232" viewBox="0 0 232 232" fill="none" xmlns="http://www.w3.org/2000/svg">
<circle cx="116" cy="116" r="116" fill="#0F0F0F"/>
<path d="M73.4375 112.131C73.3466 111.324 72.9716 110.699 72.3125 110.256C71.6534 109.807 70.8239 109.582 69.8239 109.582C69.108 109.582 68.4886 109.696 67.9659 109.923C67.4432 110.145 67.0369 110.452 66.7472 110.844C66.4631 111.23 66.321 111.67 66.321 112.165C66.321 112.58 66.4176 112.937 66.6108 113.239C66.8097 113.54 67.0682 113.793 67.3864 113.997C67.7102 114.196 68.0568 114.364 68.4261 114.5C68.7955 114.631 69.1506 114.739 69.4915 114.824L71.196 115.267C71.7528 115.403 72.3239 115.588 72.9091 115.821C73.4943 116.054 74.0369 116.361 74.5369 116.741C75.0369 117.122 75.4403 117.594 75.7472 118.156C76.0597 118.719 76.2159 119.392 76.2159 120.176C76.2159 121.165 75.9602 122.043 75.4489 122.81C74.9432 123.577 74.2074 124.182 73.2415 124.625C72.2813 125.068 71.1193 125.29 69.7557 125.29C68.4489 125.29 67.3182 125.082 66.3636 124.668C65.4091 124.253 64.6619 123.665 64.1222 122.903C63.5824 122.136 63.2841 121.227 63.2273 120.176H65.8693C65.9205 120.807 66.125 121.332 66.483 121.753C66.8466 122.168 67.3097 122.477 67.8722 122.682C68.4403 122.881 69.0625 122.98 69.7386 122.98C70.483 122.98 71.1449 122.864 71.7244 122.631C72.3097 122.392 72.7699 122.062 73.1051 121.642C73.4403 121.216 73.608 120.719 73.608 120.151C73.608 119.634 73.4602 119.21 73.1648 118.881C72.875 118.551 72.4801 118.278 71.9801 118.062C71.4858 117.847 70.9261 117.656 70.3011 117.491L68.2386 116.929C66.8409 116.548 65.733 115.989 64.9148 115.25C64.1023 114.511 63.696 113.534 63.696 112.318C63.696 111.312 63.9688 110.435 64.5142 109.685C65.0597 108.935 65.7983 108.352 66.7301 107.938C67.6619 107.517 68.7131 107.307 69.8835 107.307C71.0653 107.307 72.108 107.514 73.0114 107.929C73.9205 108.344 74.6364 108.915 75.1591 109.642C75.6818 110.364 75.9545 111.193 75.9773 112.131H73.4375ZM81.7067 117.227V125H79.1584V107.545H81.6726V114.04H81.8345C82.1413 113.335 82.6101 112.776 83.2408 112.361C83.8714 111.946 84.6953 111.739 85.7124 111.739C86.6101 111.739 87.3942 111.923 88.0646 112.293C88.7408 112.662 89.2635 113.213 89.6328 113.946C90.0078 114.673 90.1953 115.582 90.1953 116.673V125H87.647V116.98C87.647 116.02 87.3999 115.276 86.9055 114.747C86.4112 114.213 85.7237 113.946 84.843 113.946C84.2408 113.946 83.701 114.074 83.2237 114.33C82.7521 114.585 82.38 114.96 82.1072 115.455C81.8402 115.943 81.7067 116.534 81.7067 117.227ZM99.1101 125.264C97.8828 125.264 96.8118 124.983 95.897 124.42C94.9822 123.858 94.272 123.071 93.7663 122.06C93.2607 121.048 93.0078 119.866 93.0078 118.514C93.0078 117.156 93.2607 115.969 93.7663 114.952C94.272 113.935 94.9822 113.145 95.897 112.582C96.8118 112.02 97.8828 111.739 99.1101 111.739C100.337 111.739 101.408 112.02 102.323 112.582C103.238 113.145 103.948 113.935 104.454 114.952C104.96 115.969 105.212 117.156 105.212 118.514C105.212 119.866 104.96 121.048 104.454 122.06C103.948 123.071 103.238 123.858 102.323 124.42C101.408 124.983 100.337 125.264 99.1101 125.264ZM99.1186 123.125C99.9141 123.125 100.573 122.915 101.096 122.494C101.619 122.074 102.005 121.514 102.255 120.815C102.511 120.116 102.638 119.347 102.638 118.506C102.638 117.67 102.511 116.903 102.255 116.205C102.005 115.5 101.619 114.935 101.096 114.509C100.573 114.082 99.9141 113.869 99.1186 113.869C98.3175 113.869 97.6527 114.082 97.1243 114.509C96.6016 114.935 96.2124 115.5 95.9567 116.205C95.7067 116.903 95.5817 117.67 95.5817 118.506C95.5817 119.347 95.7067 120.116 95.9567 120.815C96.2124 121.514 96.6016 122.074 97.1243 122.494C97.6527 122.915 98.3175 123.125 99.1186 123.125ZM110.496 125L106.644 111.909H109.278L111.843 121.523H111.971L114.545 111.909H117.178L119.735 121.48H119.863L122.411 111.909H125.045L121.201 125H118.602L115.942 115.548H115.746L113.087 125H110.496ZM127.463 125V111.909H129.926V113.989H130.062C130.301 113.284 130.722 112.73 131.324 112.327C131.932 111.918 132.619 111.713 133.386 111.713C133.545 111.713 133.733 111.719 133.949 111.73C134.17 111.741 134.344 111.756 134.469 111.773V114.21C134.366 114.182 134.185 114.151 133.923 114.116C133.662 114.077 133.401 114.057 133.139 114.057C132.537 114.057 132 114.185 131.528 114.44C131.063 114.69 130.693 115.04 130.42 115.489C130.148 115.932 130.011 116.437 130.011 117.006V125H127.463ZM141.847 125.264C140.558 125.264 139.447 124.989 138.515 124.438C137.589 123.881 136.873 123.099 136.367 122.094C135.867 121.082 135.617 119.898 135.617 118.54C135.617 117.199 135.867 116.017 136.367 114.994C136.873 113.972 137.577 113.173 138.481 112.599C139.39 112.026 140.452 111.739 141.668 111.739C142.407 111.739 143.123 111.861 143.816 112.105C144.509 112.349 145.131 112.733 145.683 113.256C146.234 113.778 146.668 114.457 146.987 115.293C147.305 116.122 147.464 117.131 147.464 118.318V119.222H137.058V117.312H144.967C144.967 116.642 144.83 116.048 144.558 115.531C144.285 115.009 143.901 114.597 143.407 114.295C142.918 113.994 142.344 113.844 141.685 113.844C140.969 113.844 140.344 114.02 139.81 114.372C139.282 114.719 138.873 115.173 138.583 115.736C138.299 116.293 138.157 116.898 138.157 117.551V119.043C138.157 119.918 138.31 120.662 138.617 121.276C138.93 121.889 139.364 122.358 139.921 122.682C140.478 123 141.129 123.159 141.873 123.159C142.356 123.159 142.796 123.091 143.194 122.955C143.592 122.812 143.935 122.602 144.225 122.324C144.515 122.045 144.737 121.702 144.89 121.293L147.302 121.727C147.109 122.437 146.762 123.06 146.262 123.594C145.768 124.122 145.146 124.534 144.396 124.83C143.651 125.119 142.802 125.264 141.847 125.264ZM155.933 125.264C154.643 125.264 153.533 124.989 152.601 124.438C151.675 123.881 150.959 123.099 150.453 122.094C149.953 121.082 149.703 119.898 149.703 118.54C149.703 117.199 149.953 116.017 150.453 114.994C150.959 113.972 151.663 113.173 152.567 112.599C153.476 112.026 154.538 111.739 155.754 111.739C156.493 111.739 157.209 111.861 157.902 112.105C158.595 112.349 159.217 112.733 159.768 113.256C160.32 113.778 160.754 114.457 161.072 115.293C161.391 116.122 161.55 117.131 161.55 118.318V119.222H151.143V117.312H159.053C159.053 116.642 158.916 116.048 158.643 115.531C158.371 115.009 157.987 114.597 157.493 114.295C157.004 113.994 156.43 113.844 155.771 113.844C155.055 113.844 154.43 114.02 153.896 114.372C153.368 114.719 152.959 115.173 152.669 115.736C152.385 116.293 152.243 116.898 152.243 117.551V119.043C152.243 119.918 152.396 120.662 152.703 121.276C153.016 121.889 153.45 122.358 154.007 122.682C154.564 123 155.214 123.159 155.959 123.159C156.442 123.159 156.882 123.091 157.28 122.955C157.678 122.812 158.021 122.602 158.311 122.324C158.601 122.045 158.822 121.702 158.976 121.293L161.388 121.727C161.195 122.437 160.848 123.06 160.348 123.594C159.854 124.122 159.232 124.534 158.482 124.83C157.737 125.119 156.888 125.264 155.933 125.264ZM166.925 107.545V125H164.377V107.545H166.925Z" fill="white"/>
</svg>
